<svg width="24" height="24" viewBox="0 0 512 512" fill="none" xmlns="http://www.w3.org/2000/svg">
  <path d="M236.078 112.594h62.792V98.515h58.454c10.165 0 18.41-8.244 18.41-18.41v-25.974C375.734 17.321 335.681 0 309.7 0H164.634v55.213c70.364 0 71.444 57.381 71.444 57.381z" fill="currentColor"/>
  <path d="M107.251 0h44.384v55.213h-44.384z" fill="currentColor"/>
  <path d="M197.106 75.783s-9.741-8.66-32.472-8.66c0 15.152-7.58 64.954-34.65 85.524l15.16 15.16c0 0 45.47-37.892 51.962-92.024z" fill="currentColor"/>
  <path d="M237.751 125.153c-8.813 0-15.961 7.14-15.961 15.96v41.414h92.024v-41.414c0-8.82-7.148-15.96-15.96-15.96h-60.103z" fill="currentColor"/>
  <path d="M394.623 355.824l-79.729-155.608H220.71l-79.729 155.608c-6.66 12.991-10.134 27.382-10.134 41.982v71.228c0 23.732 19.242 42.966 42.966 42.966h187.969c23.732 0 42.966-19.234 42.966-42.966v-71.228c0-14.601-3.474-28.992-10.126-41.982zm-67.819 61.656c0 9.157-7.419 16.576-16.576 16.576h-84.86c-9.15 0-16.569-7.419-16.569-16.576v-19.674c0-2.225.536-4.459 1.552-6.443l30.136-58.814c5.25-10.254 15.792-16.697 27.31-16.697 11.518 0 22.059 6.443 27.318 16.697l30.128 58.822c1.025 1.977 1.561 4.21 1.561 6.436v19.673z" fill="currentColor"/>
</svg>